<?xml version="1.0" encoding="UTF-8" standalone="no"?>
<!DOCTYPE svg PUBLIC "-//W3C//DTD SVG 1.1//EN" "http://www.w3.org/Graphics/SVG/1.1/DTD/svg11.dtd">
<!-- Generated by graphviz version 2.40.1 (20161225.0304)
 -->
<!-- Title: G Pages: 1 -->
<svg width="2052pt" height="112pt" viewBox="0.00 0.00 2051.94 112.00" xmlns="http://www.w3.org/2000/svg" xmlns:xlink="http://www.w3.org/1999/xlink">
<g id="graph0" class="graph" transform="scale(1 1) rotate(0) translate(4 108)">
<title>G</title>
<polygon fill="#ffffff" stroke="transparent" points="-4,4 -4,-108 2047.9426,-108 2047.9426,4 -4,4"/>
<!-- start_1 -->
<g id="node1" class="node">
<title>start_1</title>
<ellipse fill="none" stroke="#000000" cx="18" cy="-45" rx="18" ry="18"/>
</g>
<!-- task_1 -->
<g id="node3" class="node">
<title>task_1</title>
<polygon fill="none" stroke="#000000" points="219.4661,-63 73.1777,-63 73.1777,-27 219.4661,-27 219.4661,-63"/>
<text text-anchor="middle" x="146.3219" y="-40.8" font-family="Times,serif" font-size="14.00" fill="#000000">Report job applications</text>
</g>
<!-- start_1&#45;&gt;task_1 -->
<g id="edge1" class="edge">
<title>start_1-&gt;task_1</title>
<path fill="none" stroke="#000000" d="M36.1132,-45C43.6263,-45 52.9199,-45 62.8985,-45"/>
<polygon fill="#000000" stroke="#000000" points="63.0651,-48.5001 73.065,-45 63.065,-41.5001 63.0651,-48.5001"/>
</g>
<!-- end_1 -->
<g id="node2" class="node">
<title>end_1</title>
<ellipse fill="none" stroke="#000000" cx="2021.9426" cy="-44" rx="18" ry="18"/>
<ellipse fill="none" stroke="#000000" cx="2021.9426" cy="-44" rx="22" ry="22"/>
</g>
<!-- task_2 -->
<g id="node4" class="node">
<title>task_2</title>
<polygon fill="none" stroke="#000000" points="375.0702,-63 256.8346,-63 256.8346,-27 375.0702,-27 375.0702,-63"/>
<text text-anchor="middle" x="315.9524" y="-40.8" font-family="Times,serif" font-size="14.00" fill="#000000">Receive job offers</text>
</g>
<!-- task_1&#45;&gt;task_2 -->
<g id="edge2" class="edge">
<title>task_1-&gt;task_2</title>
<path fill="none" stroke="#000000" d="M219.7377,-45C228.619,-45 237.6701,-45 246.492,-45"/>
<polygon fill="#000000" stroke="#000000" points="246.7188,-48.5001 256.7188,-45 246.7188,-41.5001 246.7188,-48.5001"/>
</g>
<!-- task_3 -->
<g id="node5" class="node">
<title>task_3</title>
<polygon fill="none" stroke="#000000" points="658.4926,-100 412.1838,-100 412.1838,-64 658.4926,-64 658.4926,-100"/>
<text text-anchor="middle" x="535.3382" y="-77.8" font-family="Times,serif" font-size="14.00" fill="#000000">Companies confirm and rate applications</text>
</g>
<!-- task_2&#45;&gt;task_3 -->
<g id="edge3" class="edge">
<title>task_2-&gt;task_3</title>
<path fill="none" stroke="#000000" d="M375.3214,-55.0127C388.8539,-57.295 403.691,-59.7974 418.7023,-62.329"/>
<polygon fill="#000000" stroke="#000000" points="418.1371,-65.7831 428.58,-63.9949 419.3013,-58.8806 418.1371,-65.7831"/>
</g>
<!-- task_4 -->
<g id="node6" class="node">
<title>task_4</title>
<polygon fill="none" stroke="#000000" points="843.687,-104 695.3248,-104 695.3248,-68 843.687,-68 843.687,-104"/>
<text text-anchor="middle" x="769.5059" y="-81.8" font-family="Times,serif" font-size="14.00" fill="#000000">Negotiate job interview</text>
</g>
<!-- task_3&#45;&gt;task_4 -->
<g id="edge4" class="edge">
<title>task_3-&gt;task_4</title>
<path fill="none" stroke="#000000" d="M658.5938,-84.1054C667.622,-84.2596 676.6011,-84.413 685.3156,-84.5619"/>
<polygon fill="#000000" stroke="#000000" points="685.3529,-88.0629 695.4113,-84.7343 685.4725,-81.064 685.3529,-88.0629"/>
</g>
<!-- task_5 -->
<g id="node7" class="node">
<title>task_5</title>
<polygon fill="none" stroke="#000000" points="1019.3694,-100 880.672,-100 880.672,-64 1019.3694,-64 1019.3694,-100"/>
<text text-anchor="middle" x="950.0207" y="-77.8" font-family="Times,serif" font-size="14.00" fill="#000000">Enter probation phase</text>
</g>
<!-- task_4&#45;&gt;task_5 -->
<g id="edge5" class="edge">
<title>task_4-&gt;task_5</title>
<path fill="none" stroke="#000000" d="M843.7096,-84.3557C852.4463,-84.1621 861.3904,-83.9639 870.2,-83.7687"/>
<polygon fill="#000000" stroke="#000000" points="870.5395,-87.2622 880.4594,-83.5414 870.3843,-80.2639 870.5395,-87.2622"/>
</g>
<!-- seg_1 -->
<g id="node12" class="node">
<title>seg_1</title>
<polygon fill="none" stroke="#000000" points="1083.445,-63 1056.445,-45 1083.445,-27 1110.445,-45 1083.445,-63"/>
<text text-anchor="middle" x="1083.445" y="-40.8" font-family="Times,serif" font-size="14.00" fill="#000000">X</text>
</g>
<!-- task_5&#45;&gt;seg_1 -->
<g id="edge6" class="edge">
<title>task_5-&gt;seg_1</title>
<path fill="none" stroke="#000000" d="M1015.1694,-63.9336C1028.9452,-60.1134 1042.81,-56.2685 1054.4123,-53.0511"/>
<polygon fill="#000000" stroke="#000000" points="1055.663,-56.3364 1064.364,-50.2914 1053.7924,-49.591 1055.663,-56.3364"/>
</g>
<!-- task_6 -->
<g id="node8" class="node">
<title>task_6</title>
<polygon fill="none" stroke="#000000" points="1382.5391,-63 1265.3763,-63 1265.3763,-27 1382.5391,-27 1382.5391,-63"/>
<text text-anchor="middle" x="1323.9577" y="-40.8" font-family="Times,serif" font-size="14.00" fill="#000000">Rate the company</text>
</g>
<!-- task_7 -->
<g id="node9" class="node">
<title>task_7</title>
<polygon fill="none" stroke="#000000" points="1544.2987,-63 1419.5649,-63 1419.5649,-27 1544.2987,-27 1544.2987,-63"/>
<text text-anchor="middle" x="1481.9318" y="-40.8" font-family="Times,serif" font-size="14.00" fill="#000000">Company rates you</text>
</g>
<!-- task_6&#45;&gt;task_7 -->
<g id="edge9" class="edge">
<title>task_6-&gt;task_7</title>
<path fill="none" stroke="#000000" d="M1382.7814,-45C1391.3564,-45 1400.2711,-45 1409.0833,-45"/>
<polygon fill="#000000" stroke="#000000" points="1409.3545,-48.5001 1419.3545,-45 1409.3544,-41.5001 1409.3545,-48.5001"/>
</g>
<!-- seg_2 -->
<g id="node13" class="node">
<title>seg_2</title>
<polygon fill="none" stroke="#000000" points="1608.3652,-63 1581.3652,-45 1608.3652,-27 1635.3652,-45 1608.3652,-63"/>
<text text-anchor="middle" x="1608.3652" y="-40.8" font-family="Times,serif" font-size="14.00" fill="#000000">X</text>
</g>
<!-- task_7&#45;&gt;seg_2 -->
<g id="edge10" class="edge">
<title>task_7-&gt;seg_2</title>
<path fill="none" stroke="#000000" d="M1544.4077,-45C1553.5064,-45 1562.6256,-45 1571.0112,-45"/>
<polygon fill="#000000" stroke="#000000" points="1571.1839,-48.5001 1581.1838,-45 1571.1838,-41.5001 1571.1839,-48.5001"/>
</g>
<!-- task_8 -->
<g id="node10" class="node">
<title>task_8</title>
<polygon fill="none" stroke="#000000" points="1963.1433,-90 1747.3413,-90 1747.3413,-54 1963.1433,-54 1963.1433,-90"/>
<text text-anchor="middle" x="1855.2423" y="-67.8" font-family="Times,serif" font-size="14.00" fill="#000000">View company reviews after 1 year</text>
</g>
<!-- task_8&#45;&gt;end_1 -->
<g id="edge13" class="edge">
<title>task_8-&gt;end_1</title>
<path fill="none" stroke="#000000" d="M1962.7009,-53.9506C1972.5132,-52.3025 1981.8378,-50.7362 1990.0634,-49.3546"/>
<polygon fill="#000000" stroke="#000000" points="1990.9102,-52.7615 2000.1922,-47.6533 1989.7506,-45.8582 1990.9102,-52.7615"/>
</g>
<!-- task_9 -->
<g id="node11" class="node">
<title>task_9</title>
<polygon fill="none" stroke="#000000" points="1930.2523,-36 1780.2323,-36 1780.2323,0 1930.2523,0 1930.2523,-36"/>
<text text-anchor="middle" x="1855.2423" y="-13.8" font-family="Times,serif" font-size="14.00" fill="#000000">Job becomes permanent</text>
</g>
<!-- task_9&#45;&gt;end_1 -->
<g id="edge14" class="edge">
<title>task_9-&gt;end_1</title>
<path fill="none" stroke="#000000" d="M1930.3022,-29.707C1951.3425,-32.9886 1973.0946,-36.3812 1990.1237,-39.0373"/>
<polygon fill="#000000" stroke="#000000" points="1989.6479,-42.5053 2000.0678,-40.5882 1990.7267,-35.5889 1989.6479,-42.5053"/>
</g>
<!-- seg_1&#45;&gt;task_2 -->
<g id="edge8" class="edge">
<title>seg_1-&gt;task_2</title>
<path fill="none" stroke="#000000" d="M1060.8371,-41.7209C1034.3441,-38.168 989.0932,-33 950.0207,-33 535.3382,-33 535.3382,-33 535.3382,-33 485.1928,-33 428.6961,-36.1644 385.5947,-39.2433"/>
<polygon fill="#000000" stroke="#000000" points="385.2156,-35.7616 375.497,-39.9804 385.7253,-42.743 385.2156,-35.7616"/>
<text text-anchor="middle" x="769.5059" y="-37.2" font-family="Times,serif" font-size="14.00" fill="#000000">Probation phase continues</text>
</g>
<!-- seg_1&#45;&gt;task_6 -->
<g id="edge7" class="edge">
<title>seg_1-&gt;task_6</title>
<path fill="none" stroke="#000000" d="M1110.5673,-45C1145.4343,-45 1207.2151,-45 1255.3584,-45"/>
<polygon fill="#000000" stroke="#000000" points="1255.4101,-48.5001 1265.41,-45 1255.41,-41.5001 1255.4101,-48.5001"/>
<text text-anchor="middle" x="1187.931" y="-49.2" font-family="Times,serif" font-size="14.00" fill="#000000">Probation phase ends</text>
</g>
<!-- seg_2&#45;&gt;task_8 -->
<g id="edge11" class="edge">
<title>seg_2-&gt;task_8</title>
<path fill="none" stroke="#000000" d="M1631.5908,-47.5401C1656.2669,-50.2388 1697.1837,-54.7137 1737.3212,-59.1034"/>
<polygon fill="#000000" stroke="#000000" points="1737.1772,-62.6085 1747.4985,-60.2165 1737.9383,-55.65 1737.1772,-62.6085"/>
<text text-anchor="middle" x="1691.4536" y="-61.2" font-family="Times,serif" font-size="14.00" fill="#000000">After 1 year</text>
</g>
<!-- seg_2&#45;&gt;task_9 -->
<g id="edge12" class="edge">
<title>seg_2-&gt;task_9</title>
<path fill="none" stroke="#000000" d="M1625.613,-38.171C1633.8772,-35.1997 1643.9951,-31.9928 1653.3652,-30.2 1691.1925,-22.9622 1733.6657,-19.687 1769.8591,-18.3075"/>
<polygon fill="#000000" stroke="#000000" points="1770.0164,-21.8042 1779.8919,-17.9669 1769.7788,-14.8083 1770.0164,-21.8042"/>
<text text-anchor="middle" x="1691.4536" y="-35.2" font-family="Times,serif" font-size="14.00" fill="#000000">Before 1 year</text>
</g>
</g>
</svg>