<?xml version="1.0" encoding="UTF-8" standalone="no"?>
<!DOCTYPE svg PUBLIC "-//W3C//DTD SVG 1.1//EN" "http://www.w3.org/Graphics/SVG/1.1/DTD/svg11.dtd">
<!-- Generated by graphviz version 2.40.1 (20161225.0304)
 -->
<!-- Title: G Pages: 1 -->
<svg width="1137pt" height="102pt" viewBox="0.00 0.00 1136.70 102.00" xmlns="http://www.w3.org/2000/svg" xmlns:xlink="http://www.w3.org/1999/xlink">
<g id="graph0" class="graph" transform="scale(1 1) rotate(0) translate(4 98)">
<title>G</title>
<polygon fill="#ffffff" stroke="transparent" points="-4,4 -4,-98 1132.6996,-98 1132.6996,4 -4,4"/>
<!-- start_1 -->
<g id="node1" class="node">
<title>start_1</title>
<ellipse fill="none" stroke="#000000" cx="18" cy="-38" rx="18" ry="18"/>
</g>
<!-- Enter details -->
<g id="node3" class="node">
<title>Enter details</title>
<polygon fill="none" stroke="#000000" points="159.5468,-56 72.8172,-56 72.8172,-20 159.5468,-20 159.5468,-56"/>
<text text-anchor="middle" x="116.182" y="-33.8" font-family="Times,serif" font-size="14.00" fill="#000000">Enter details</text>
</g>
<!-- start_1&#45;&gt;Enter details -->
<g id="edge1" class="edge">
<title>start_1-&gt;Enter details</title>
<path fill="none" stroke="#000000" d="M36.0081,-38C43.6504,-38 52.9999,-38 62.5806,-38"/>
<polygon fill="#000000" stroke="#000000" points="62.5864,-41.5001 72.5864,-38 62.5864,-34.5001 62.5864,-41.5001"/>
</g>
<!-- end_1 -->
<g id="node2" class="node">
<title>end_1</title>
<ellipse fill="none" stroke="#000000" cx="1106.6996" cy="-72" rx="18" ry="18"/>
<ellipse fill="none" stroke="#000000" cx="1106.6996" cy="-72" rx="22" ry="22"/>
</g>
<!-- Receive offers -->
<g id="node4" class="node">
<title>Receive offers</title>
<polygon fill="none" stroke="#000000" points="293.7042,-56 196.2504,-56 196.2504,-20 293.7042,-20 293.7042,-56"/>
<text text-anchor="middle" x="244.9773" y="-33.8" font-family="Times,serif" font-size="14.00" fill="#000000">Receive offers</text>
</g>
<!-- Enter details&#45;&gt;Receive offers -->
<g id="edge2" class="edge">
<title>Enter details-&gt;Receive offers</title>
<path fill="none" stroke="#000000" d="M159.4273,-38C168.0289,-38 177.1969,-38 186.2163,-38"/>
<polygon fill="#000000" stroke="#000000" points="186.2983,-41.5001 196.2982,-38 186.2982,-34.5001 186.2983,-41.5001"/>
</g>
<!-- seg_1 -->
<g id="node5" class="node">
<title>seg_1</title>
<polygon fill="none" stroke="#000000" points="357.5906,-56 330.5906,-38 357.5906,-20 384.5906,-38 357.5906,-56"/>
<text text-anchor="middle" x="357.5906" y="-33.8" font-family="Times,serif" font-size="14.00" fill="#000000">X</text>
</g>
<!-- Receive offers&#45;&gt;seg_1 -->
<g id="edge3" class="edge">
<title>Receive offers-&gt;seg_1</title>
<path fill="none" stroke="#000000" d="M293.7162,-38C302.6754,-38 311.895,-38 320.4453,-38"/>
<polygon fill="#000000" stroke="#000000" points="320.4804,-41.5001 330.4803,-38 320.4803,-34.5001 320.4804,-41.5001"/>
</g>
<!-- Accept offer -->
<g id="node6" class="node">
<title>Accept offer</title>
<polygon fill="none" stroke="#000000" points="546.7384,-90 460.0622,-90 460.0622,-54 546.7384,-54 546.7384,-90"/>
<text text-anchor="middle" x="503.4003" y="-67.8" font-family="Times,serif" font-size="14.00" fill="#000000">Accept offer</text>
</g>
<!-- seg_1&#45;&gt;Accept offer -->
<g id="edge4" class="edge">
<title>seg_1-&gt;Accept offer</title>
<path fill="none" stroke="#000000" d="M377.8648,-42.7276C396.5167,-47.0768 425.0096,-53.7208 450.1382,-59.5803"/>
<polygon fill="#000000" stroke="#000000" points="449.4028,-63.0027 459.9364,-61.8651 450.9925,-56.1855 449.4028,-63.0027"/>
<text text-anchor="middle" x="422.4111" y="-62.2" font-family="Times,serif" font-size="14.00" fill="#000000">Accept</text>
</g>
<!-- Deny offer -->
<g id="node7" class="node">
<title>Deny offer</title>
<polygon fill="none" stroke="#000000" points="541.9179,-36 464.8827,-36 464.8827,0 541.9179,0 541.9179,-36"/>
<text text-anchor="middle" x="503.4003" y="-13.8" font-family="Times,serif" font-size="14.00" fill="#000000">Deny offer</text>
</g>
<!-- seg_1&#45;&gt;Deny offer -->
<g id="edge5" class="edge">
<title>seg_1-&gt;Deny offer</title>
<path fill="none" stroke="#000000" d="M376.2596,-32.3201C384.2926,-30.0812 393.8326,-27.6926 402.5906,-26.2 419.3623,-23.3416 437.8791,-21.4723 454.4176,-20.2528"/>
<polygon fill="#000000" stroke="#000000" points="454.6858,-23.7428 464.4262,-19.5745 454.2124,-16.7588 454.6858,-23.7428"/>
<text text-anchor="middle" x="422.4111" y="-31.2" font-family="Times,serif" font-size="14.00" fill="#000000">Deny</text>
</g>
<!-- Write updates -->
<g id="node8" class="node">
<title>Write updates</title>
<polygon fill="none" stroke="#000000" points="677.7722,-90 583.5012,-90 583.5012,-54 677.7722,-54 677.7722,-90"/>
<text text-anchor="middle" x="630.6367" y="-67.8" font-family="Times,serif" font-size="14.00" fill="#000000">Write updates</text>
</g>
<!-- Accept offer&#45;&gt;Write updates -->
<g id="edge6" class="edge">
<title>Accept offer-&gt;Write updates</title>
<path fill="none" stroke="#000000" d="M546.832,-72C555.3179,-72 564.3385,-72 573.1976,-72"/>
<polygon fill="#000000" stroke="#000000" points="573.4818,-75.5001 583.4817,-72 573.4817,-68.5001 573.4818,-75.5001"/>
</g>
<!-- Company writes updates -->
<g id="node9" class="node">
<title>Company writes updates</title>
<polygon fill="none" stroke="#000000" points="869.3257,-90 714.4969,-90 714.4969,-54 869.3257,-54 869.3257,-90"/>
<text text-anchor="middle" x="791.9113" y="-67.8" font-family="Times,serif" font-size="14.00" fill="#000000">Company writes updates</text>
</g>
<!-- Write updates&#45;&gt;Company writes updates -->
<g id="edge7" class="edge">
<title>Write updates-&gt;Company writes updates</title>
<path fill="none" stroke="#000000" d="M677.7175,-72C686.0939,-72 695.0582,-72 704.1441,-72"/>
<polygon fill="#000000" stroke="#000000" points="704.4294,-75.5001 714.4293,-72 704.4293,-68.5001 704.4294,-75.5001"/>
</g>
<!-- Recommend company -->
<g id="node10" class="node">
<title>Recommend company</title>
<polygon fill="none" stroke="#000000" points="1047.4909,-90 906.3269,-90 906.3269,-54 1047.4909,-54 1047.4909,-90"/>
<text text-anchor="middle" x="976.9089" y="-67.8" font-family="Times,serif" font-size="14.00" fill="#000000">Recommend company</text>
</g>
<!-- Company writes updates&#45;&gt;Recommend company -->
<g id="edge8" class="edge">
<title>Company writes updates-&gt;Recommend company</title>
<path fill="none" stroke="#000000" d="M869.295,-72C878.2154,-72 887.3285,-72 896.2904,-72"/>
<polygon fill="#000000" stroke="#000000" points="896.326,-75.5001 906.326,-72 896.3259,-68.5001 896.326,-75.5001"/>
</g>
<!-- Recommend company&#45;&gt;end_1 -->
<g id="edge9" class="edge">
<title>Recommend company-&gt;end_1</title>
<path fill="none" stroke="#000000" d="M1047.5014,-72C1056.8444,-72 1066.0287,-72 1074.2716,-72"/>
<polygon fill="#000000" stroke="#000000" points="1074.4996,-75.5001 1084.4996,-72 1074.4995,-68.5001 1074.4996,-75.5001"/>
</g>
</g>
</svg>